<svg width="13" height="12" viewBox="0 0 13 12" fill="none" xmlns="http://www.w3.org/2000/svg">
<path d="M1 9.33333H8.33333M8.33333 9.33333C8.33333 10.4379 9.22876 11.3333 10.3333 11.3333C11.4379 11.3333 12.3333 10.4379 12.3333 9.33333C12.3333 8.22876 11.4379 7.33333 10.3333 7.33333C9.22876 7.33333 8.33333 8.22876 8.33333 9.33333ZM5 2.66667H12.3333M5 2.66667C5 3.77124 4.10457 4.66667 3 4.66667C1.89543 4.66667 1 3.77124 1 2.66667C1 1.5621 1.89543 0.666666 3 0.666666C4.10457 0.666666 5 1.5621 5 2.66667Z" stroke="#14142B" stroke-linecap="round"/>
</svg>
